<svg id="Layer_3" enable-background="new 0 0 64 64" height="512" viewBox="0 0 64 64" width="512" xmlns="http://www.w3.org/2000/svg"><g><path d="m6 31h4c.553 0 1-.448 1-1v-22c0-.552-.447-1-1-1h-4c-.553 0-1 .448-1 1v22c0 .552.447 1 1 1zm1-22h2v20h-2z"/><path d="m6 39h4c.553 0 1-.448 1-1v-4c0-.552-.447-1-1-1h-4c-.553 0-1 .448-1 1v4c0 .552.447 1 1 1zm1-4h2v2h-2z"/><path d="m62 38h-3.483c-.413-1.725-1.086-3.352-2.005-4.855l2.459-2.459c.188-.188.293-.442.293-.707s-.105-.52-.293-.707l-4.243-4.243c-.375-.376-1.04-.374-1.414 0l-2.459 2.459c-1.503-.92-3.131-1.592-4.854-2.005v-3.483c0-.552-.447-1-1-1h-2v-19c0-.552-.447-1-1-1h-40.001c-.553 0-1 .448-1 1v48c0 .265.105.52.293.707l8 8c.187.188.441.293.707.293h19.317c.393.352.992.348 1.369-.03l2.459-2.459c1.503.92 3.13 1.592 4.854 2.005v3.484c0 .552.447 1 1 1h6c.553 0 1-.448 1-1v-3.483c1.724-.414 3.351-1.086 4.854-2.005l2.459 2.459c.188.188.441.293.707.293s.52-.105.707-.293l4.243-4.243c.188-.188.293-.442.293-.707s-.105-.52-.293-.707l-2.459-2.459c.919-1.503 1.592-3.13 2.005-4.855h3.485c.553 0 1-.448 1-1v-6c0-.552-.447-1-1-1zm-21-35v18h-2c-.553 0-1 .448-1 1v3.483c-1.724.414-3.351 1.086-4.854 2.005l-2.459-2.459c-.188-.188-.441-.293-.707-.293s-.52.105-.707.293l-4.243 4.243c-.188.188-.293.442-.293.707s.105.52.293.707l2.459 2.459c-.919 1.503-1.592 3.13-2.005 4.855h-3.484c-.553 0-1 .448-1 1v6c0 .552.447 1 1 1h3.483c.414 1.725 1.086 3.352 2.005 4.854l-2.459 2.459c-.188.188-.293.442-.293.707s.105.52.293.707l2.273 2.273h-16.302v-7c0-.552-.447-1-1-1h-7v-46zm-32 52.586-4.586-4.586h4.586zm52-11.586h-3.291c-.48 0-.893.342-.982.813-.386 2.032-1.166 3.921-2.319 5.615-.271.397-.221.931.119 1.27l2.323 2.323-2.829 2.829-2.322-2.323c-.34-.34-.873-.389-1.27-.12-1.696 1.153-3.585 1.934-5.615 2.32-.472.09-.814.502-.814.982v3.291h-4v-3.291c0-.48-.342-.893-.813-.982-2.031-.386-3.921-1.166-5.615-2.32-.396-.27-.929-.22-1.27.12l-2.322 2.323-2.829-2.828 2.323-2.323c.34-.34.39-.873.119-1.27-1.153-1.693-1.934-3.582-2.319-5.614-.09-.473-.503-.815-.983-.815h-3.291v-4h3.291c.48 0 .893-.342.982-.813.386-2.032 1.166-3.921 2.319-5.615.271-.397.221-.931-.119-1.27l-2.323-2.323 2.829-2.829 2.322 2.323c.34.34.873.39 1.27.12 1.696-1.153 3.585-1.934 5.615-2.32.472-.09.814-.502.814-.982v-3.291h4v3.291c0 .48.342.893.813.982 2.031.386 3.921 1.166 5.615 2.32.397.27.93.221 1.27-.12l2.322-2.323 2.829 2.829-2.323 2.323c-.34.339-.39.873-.119 1.27 1.153 1.694 1.934 3.583 2.319 5.615.09.471.503.813.983.813h3.291z"/><path d="m42 29c-7.168 0-13 5.832-13 13s5.832 13 13 13 13-5.832 13-13-5.832-13-13-13zm-1 23.949v-5.171c0-.419-.261-.793-.654-.938-2.001-.738-3.346-2.726-3.346-4.947 0-1.68.765-3.226 2-4.2v4.2c0 .258.1.506.278.693l2 2.083c.379.393 1.064.393 1.443 0l2-2.083c.179-.187.279-.435.279-.693v-4.2c1.235.974 2 2.52 2 4.2 0 2.221-1.345 4.209-3.346 4.947-.393.145-.654.519-.654.938v5.171c-.33.03-.662.051-1 .051s-.67-.021-1-.051zm4-.375v-4.138c2.419-1.189 4-3.734 4-6.543 0-3.062-1.87-5.807-4.654-6.831-.308-.112-.65-.069-.918.118s-.428.494-.428.82v5.49l-1 1.041-1-1.041v-5.49c0-.327-.16-.633-.428-.82-.269-.187-.61-.231-.918-.118-2.784 1.024-4.654 3.77-4.654 6.831 0 2.809 1.581 5.354 4 6.543v4.138c-4.61-1.31-8-5.549-8-10.574 0-6.065 4.935-11 11-11s11 4.935 11 11c0 5.024-3.39 9.263-8 10.574z"/></g></svg>